<?xml version="1.0" encoding="UTF-8" standalone="no"?>
<!-- Created with Inkscape (http://www.inkscape.org/) -->

<svg
   width="16"
   height="16"
   viewBox="0 0 4.2333332 4.2333333"
   version="1.1"
   id="svg1"
   xml:space="preserve"
   sodipodi:docname="icon.svg"
   inkscape:version="1.4.4 (1:1.4.4+202605061432+dcaf3e7d9e)"
   xmlns:inkscape="http://www.inkscape.org/namespaces/inkscape"
   xmlns:sodipodi="http://sodipodi.sourceforge.net/DTD/sodipodi-0.dtd"
   xmlns:xlink="http://www.w3.org/1999/xlink"
   xmlns="http://www.w3.org/2000/svg"
   xmlns:svg="http://www.w3.org/2000/svg"><sodipodi:namedview
     id="namedview1"
     pagecolor="#ffffff"
     bordercolor="#000000"
     borderopacity="0.25"
     inkscape:showpageshadow="2"
     inkscape:pageopacity="0.0"
     inkscape:pagecheckerboard="true"
     inkscape:deskcolor="#d1d1d1"
     inkscape:document-units="px"
     showgrid="true"
     inkscape:zoom="11.313709"
     inkscape:cx="-0.88388348"
     inkscape:cy="9.9436891"
     inkscape:window-width="1440"
     inkscape:window-height="849"
     inkscape:window-x="0"
     inkscape:window-y="0"
     inkscape:window-maximized="1"
     inkscape:current-layer="g1"><inkscape:grid
       id="grid1"
       units="px"
       originx="0"
       originy="0"
       spacingx="0.13229166"
       spacingy="0.13229166"
       empcolor="#0099e5"
       empopacity="0.30196078"
       color="#0099e5"
       opacity="0.14901961"
       empspacing="2"
       enabled="true"
       visible="true" /></sodipodi:namedview><defs
     id="defs1"><linearGradient
       id="linearGradient3"
       inkscape:collect="always"><stop
         style="stop-color:#71b9d2;stop-opacity:1;"
         offset="0"
         id="stop3" /><stop
         style="stop-color:#2f7992;stop-opacity:1;"
         offset="1"
         id="stop4" /></linearGradient><linearGradient
       inkscape:collect="always"
       xlink:href="#linearGradient3"
       id="linearGradient4"
       x1="1.5098922"
       y1="3.2244296"
       x2="1.5098922"
       y2="1.9492048"
       gradientUnits="userSpaceOnUse" /></defs><g
     inkscape:label="Слой 1"
     inkscape:groupmode="layer"
     id="layer1"><g
       id="g1"
       transform="translate(-0.26458328,-0.2478672)"><rect
         style="font-variation-settings:normal;opacity:1;vector-effect:none;fill:#323232;fill-opacity:1;fill-rule:evenodd;stroke:none;stroke-width:0.584999;stroke-linecap:butt;stroke-linejoin:miter;stroke-miterlimit:4;stroke-dasharray:none;stroke-dashoffset:0;stroke-opacity:1;-inkscape-stroke:none;stop-color:#000000;stop-opacity:1"
         id="rect3"
         width="2.1166666"
         height="4.2333331"
         x="2.3812499"
         y="0.2478672" /><path
         id="path1"
         style="font-variation-settings:normal;opacity:1;fill:url(#linearGradient4);fill-opacity:1;stroke:none;stroke-width:0.01;stroke-linecap:butt;stroke-linejoin:miter;stroke-miterlimit:4;stroke-dasharray:none;stroke-dashoffset:0;stroke-opacity:1;stop-color:#000000;stop-opacity:1"
         d="M 1.4247192,1.767671 C 1.0188403,1.7788674 0.56889338,2.0758602 0.27078445,1.8813592 0.3644181,2.7529771 0.79828209,3.2699143 1.2950113,3.3593051 1.6537132,3.4238566 2.0964828,3.1267045 2.3812499,3.1226271 V 2.0580926 C 2.1016025,1.9791959 1.8407818,1.7952204 1.5053344,1.7697381 c -0.026609,-0.00202 -0.053557,-0.00281 -0.080615,-0.00207 z M 1.3836366,2.143546 C 1.8596793,2.13946 2.0592044,2.547141 2.0592045,2.8176956 1.7413858,2.8442001 1.4054691,3.0551271 1.0791155,2.8753047 0.87880161,2.7649308 0.82017149,2.6545902 0.72329789,2.242101 0.89995884,2.2580648 1.118532,2.1458215 1.3836366,2.143546 Z"
         sodipodi:nodetypes="scsccscsscscs" /><path
         id="path1-6"
         style="font-variation-settings:normal;fill:#ffffff;fill-opacity:1;stroke:none;stroke-width:0.01;stroke-linecap:butt;stroke-linejoin:miter;stroke-miterlimit:4;stroke-dasharray:none;stroke-dashoffset:0;stroke-opacity:1;stop-color:#000000"
         d="M 3.3377806,1.767671 C 3.7436595,1.7788674 4.1936064,2.0758602 4.4917153,1.8813592 4.3980817,2.7529771 3.9642177,3.2699143 3.4674885,3.3593051 3.1087866,3.4238566 2.666017,3.1267045 2.3812499,3.1226271 V 2.0580926 C 2.6608973,1.9791956 2.921718,1.7952204 3.2571654,1.7697381 c 0.026609,-0.00202 0.053557,-0.00281 0.080615,-0.00207 z m 0.041083,0.375875 C 2.9028205,2.13946 2.7032954,2.547141 2.7032953,2.8176956 3.021114,2.8442001 3.3570307,3.0551271 3.6833843,2.8753047 3.8836982,2.7649308 3.9423283,2.6545902 4.0392019,2.242101 3.862541,2.2580648 3.6439678,2.1458215 3.3788636,2.143546 Z"
         sodipodi:nodetypes="scsccscsscscs" /></g></g></svg>
